# xmcd
#
# Track frame offsets:
#	150
#	11820
#	27577
#	43940
#	55425
#	66465
#	78001
#	90047
#	101801
#	111654
#	125954
#	139178
#	153400
#	168045
#	178810
#
# Disc length: 2550 seconds
#
# Revision: 0
# Processed by: cddbd v1.5.1PL2 Copyright (c) Steve Scherf et al.
# Submitted via: dBpowerAMP V4.0
#
DISCID=d509f40f
DTITLE=Various Artist - All That Soul [CD3]
DYEAR=2005
DGENRE=Big Band
TTITLE0=Hold On! I'm Comin' - Sam and Dave
TTITLE1=Spanish Harlem - Aretha Franklin
TTITLE2=Rainy Night In Georgia - Brook Benton
TTITLE3=Walking The Dog - Rufus Thomas
TTITLE4=Land Of 1000 Dances - Wilson Pickett
TTITLE5=Save The Last Dance For Me - The Drifters
TTITLE6=It Should've Been Me - Ray Charles
TTITLE7=It's Too Late - Chuck Willis
TTITLE8=Treasure Of Love - Clyde McPhatter
TTITLE9=I'll Be Around - The Spinners
TTITLE10=Memphis Soul Stew - King Curtis
TTITLE11=Tweedle Dee - Lavern Baker
TTITLE12=I've Got Dreams To Remember - Otis Redding
TTITLE13=One Mint Julep - The Clovers
TTITLE14=Everybody Needs Somebody To Love - Solomon Burke
EXTD=
EXTT0=
EXTT1=
EXTT2=
EXTT3=
EXTT4=
EXTT5=
EXTT6=
EXTT7=
EXTT8=
EXTT9=
EXTT10=
EXTT11=
EXTT12=
EXTT13=
EXTT14=
PLAYORDER=
